<svg xmlns="http://www.w3.org/2000/svg" viewBox="0 0 200 200">
  <g>
    <!-- Android Logo -->
    <path fill="#3DDC84" d="M45,65 L45,135 C45,140 48,144 53,145 L53,155 C53,160 58,163 63,160 C68,157 68,149 63,146 L63,145 L137,145 L137,155 C137,160 142,163 147,160 C152,157 152,149 147,146 L147,145 C152,144 155,140 155,135 L155,65 L45,65 Z"/>
    <circle fill="#3DDC84" cx="70" cy="95" r="5"/>
    <circle fill="#3DDC84" cx="130" cy="95" r="5"/>
    <path fill="#3DDC84" d="M30,65 C25,65 20,70 20,75 L20,115 C20,120 25,125 30,125 C35,125 40,120 40,115 L40,75 C40,70 35,65 30,65 Z"/>
    <path fill="#3DDC84" d="M170,65 C165,65 160,70 160,75 L160,115 C160,120 165,125 170,125 C175,125 180,120 180,115 L180,75 C180,70 175,65 170,65 Z"/>
    <path fill="#3DDC84" d="M100,10 L135,45 L65,45 Z"/>
    
    <!-- Java Cup -->
    <path fill="#5382A1" d="M85,165 C85,165 75,170 90,175 C105,180 115,180 130,175 C130,175 135,180 140,180 C125,190 95,190 85,180 C80,175 85,165 85,165 Z"/>
    <path fill="#5382A1" d="M80,155 C80,155 70,160 85,165 C100,170 120,170 135,165 C135,165 140,170 145,170 C125,180 95,180 80,170 C75,165 80,155 80,155 Z"/>
    <path fill="#E76F00" d="M100,150 C105,155 95,160 95,170 C95,180 120,185 135,175 C125,170 120,165 125,160 C130,155 145,150 130,145 C115,140 95,145 100,150 Z"/>
  </g>
</svg>