<svg xmlns="http://www.w3.org/2000/svg" viewBox="0 0 200 200">
  <g>
    <!-- Android Logo -->
    <path fill="#3DDC84" d="M45,65 L45,135 C45,140 48,144 53,145 L53,155 C53,160 58,163 63,160 C68,157 68,149 63,146 L63,145 L137,145 L137,155 C137,160 142,163 147,160 C152,157 152,149 147,146 L147,145 C152,144 155,140 155,135 L155,65 L45,65 Z"/>
    <circle fill="#3DDC84" cx="70" cy="95" r="5"/>
    <circle fill="#3DDC84" cx="130" cy="95" r="5"/>
    <path fill="#3DDC84" d="M30,65 C25,65 20,70 20,75 L20,115 C20,120 25,125 30,125 C35,125 40,120 40,115 L40,75 C40,70 35,65 30,65 Z"/>
    <path fill="#3DDC84" d="M170,65 C165,65 160,70 160,75 L160,115 C160,120 165,125 170,125 C175,125 180,120 180,115 L180,75 C180,70 175,65 170,65 Z"/>
    <path fill="#3DDC84" d="M100,10 L135,45 L65,45 Z"/>
    
    <!-- Kotlin "K" -->
    <path fill="#7F52FF" d="M105,165 L120,165 L120,180 L105,180 Z"/>
    <path fill="#7F52FF" d="M125,165 L140,165 L140,180 L125,180 Z"/>
    <path fill="#7F52FF" d="M145,165 L160,165 L160,180 L145,180 Z"/>
    <path fill="#7F52FF" d="M85,165 L100,180 L70,180 L85,165 Z"/>
  </g>
</svg>